<svg width="90" height="60" viewBox="0 0 90 60" fill="none" xmlns="http://www.w3.org/2000/svg">
    <path
        d="M18.0217 44L11.3817 32.6H6.98172V44H3.34172V16.12H12.3417C14.4484 16.12 16.2217 16.48 17.6617 17.2C19.1284 17.92 20.2217 18.8933 20.9417 20.12C21.6617 21.3467 22.0217 22.7467 22.0217 24.32C22.0217 26.24 21.4617 27.9333 20.3417 29.4C19.2484 30.8667 17.5951 31.84 15.3817 32.32L22.3817 44H18.0217ZM6.98172 29.68H12.3417C14.3151 29.68 15.7951 29.2 16.7817 28.24C17.7684 27.2533 18.2617 25.9467 18.2617 24.32C18.2617 22.6667 17.7684 21.3867 16.7817 20.48C15.8217 19.5733 14.3417 19.12 12.3417 19.12H6.98172V29.68Z"
        fill="white" />
    <path
        d="M37.5577 41.68C38.8643 41.68 40.0643 41.4533 41.1577 41C42.2777 40.52 43.2243 39.8267 43.9977 38.92L45.5977 40.76C44.6643 41.88 43.5043 42.7333 42.1177 43.32C40.731 43.9067 39.1977 44.2 37.5177 44.2C35.3577 44.2 33.4377 43.7467 31.7577 42.84C30.0777 41.9067 28.771 40.6267 27.8377 39C26.9043 37.3733 26.4377 35.5333 26.4377 33.48C26.4377 31.4267 26.8777 29.5867 27.7577 27.96C28.6643 26.3333 29.9043 25.0667 31.4777 24.16C33.051 23.2533 34.8377 22.8 36.8377 22.8C38.7043 22.8 40.3843 23.2267 41.8777 24.08C43.3977 24.9333 44.5977 26.12 45.4777 27.64C46.3843 29.16 46.8643 30.8933 46.9177 32.84L29.6377 36.2C30.171 37.9067 31.131 39.2533 32.5177 40.24C33.931 41.2 35.611 41.68 37.5577 41.68ZM36.8377 25.24C35.371 25.24 34.051 25.5867 32.8777 26.28C31.731 26.9467 30.8243 27.8933 30.1577 29.12C29.5177 30.32 29.1977 31.7067 29.1977 33.28C29.1977 33.68 29.211 33.9733 29.2377 34.16L44.0777 31.28C43.7577 29.52 42.9443 28.08 41.6377 26.96C40.331 25.8133 38.731 25.24 36.8377 25.24Z"
        fill="#E06AFF" />
    <path
        d="M67.3742 24.9592C67.227 24.8108 67.0519 24.693 66.8589 24.6126C66.666 24.5322 66.459 24.4908 66.25 24.4908C66.041 24.4908 65.834 24.5322 65.6411 24.6126C65.4481 24.693 65.273 24.8108 65.1258 24.9592L57.2092 32.8758C57.0608 33.023 56.943 33.1981 56.8626 33.3911C56.7822 33.584 56.7408 33.791 56.7408 34C56.7408 34.209 56.7822 34.416 56.8626 34.6089C56.943 34.8019 57.0608 34.977 57.2092 35.1242L65.1258 43.0408C65.273 43.1892 65.4481 43.307 65.6411 43.3874C65.834 43.4678 66.041 43.5092 66.25 43.5092C66.459 43.5092 66.666 43.4678 66.8589 43.3874C67.0519 43.307 67.227 43.1892 67.3742 43.0408C67.5226 42.8936 67.6404 42.7185 67.7207 42.5256C67.8011 42.3326 67.8425 42.1257 67.8425 41.9167C67.8425 41.7076 67.8011 41.5007 67.7207 41.3078C67.6404 41.1148 67.5226 40.9397 67.3742 40.7925L60.5658 34L67.3742 27.2075C67.5226 27.0603 67.6404 26.8852 67.7207 26.6922C67.8011 26.4993 67.8425 26.2924 67.8425 26.0833C67.8425 25.8743 67.8011 25.6674 67.7207 25.4744C67.6404 25.2815 67.5226 25.1064 67.3742 24.9592ZM84.7908 32.8758L76.8742 24.9592C76.7265 24.8115 76.5513 24.6944 76.3584 24.6145C76.1655 24.5346 75.9588 24.4935 75.75 24.4935C75.3284 24.4935 74.924 24.661 74.6258 24.9592C74.4782 25.1068 74.3611 25.2821 74.2812 25.4749C74.2013 25.6678 74.1602 25.8746 74.1602 26.0833C74.1602 26.505 74.3277 26.9094 74.6258 27.2075L81.4342 34L74.6258 40.7925C74.4774 40.9397 74.3596 41.1148 74.2793 41.3078C74.1989 41.5007 74.1575 41.7076 74.1575 41.9167C74.1575 42.1257 74.1989 42.3326 74.2793 42.5256C74.3596 42.7185 74.4774 42.8936 74.6258 43.0408C74.773 43.1892 74.9481 43.307 75.1411 43.3874C75.334 43.4678 75.541 43.5092 75.75 43.5092C75.959 43.5092 76.166 43.4678 76.3589 43.3874C76.5519 43.307 76.727 43.1892 76.8742 43.0408L84.7908 35.1242C84.9392 34.977 85.057 34.8019 85.1374 34.6089C85.2178 34.416 85.2592 34.209 85.2592 34C85.2592 33.791 85.2178 33.584 85.1374 33.3911C85.057 33.1981 84.9392 33.023 84.7908 32.8758Z"
        fill="#39FFD1" />
</svg>