<svg width="52" height="52" viewBox="0 0 52 52" fill="none" xmlns="http://www.w3.org/2000/svg">
<path d="M26 47.6667C37.9665 47.6667 47.6667 37.9665 47.6667 26C47.6667 24.9968 46.163 24.83 45.6452 25.6902C44.5407 27.5196 43.0344 29.0736 41.2404 30.2347C39.4464 31.3957 37.4116 32.1333 35.2903 32.3915C33.169 32.6497 31.0168 32.4217 28.9966 31.7249C26.9765 31.0281 25.1414 29.8808 23.6303 28.3697C22.1193 26.8587 20.9719 25.0236 20.2751 23.0034C19.5783 20.9832 19.3504 18.831 19.6086 16.7097C19.8668 14.5884 20.6043 12.5537 21.7654 10.7596C22.9264 8.9656 24.4805 7.4593 26.3099 6.35483C27.17 5.83483 27.0032 4.33333 26 4.33333C14.0335 4.33333 4.33337 14.0335 4.33337 26C4.33337 37.9665 14.0335 47.6667 26 47.6667Z" fill="#E6E6E6"/>
</svg>
