<svg width="13" height="13" viewBox="0 0 13 13" fill="none" xmlns="http://www.w3.org/2000/svg">
    <g clip-path="url(#clip0_128_21)">
        <path
            d="M12.9929 6.50001C12.9928 6.31551 12.9535 6.13314 12.8774 5.96504C12.8014 5.79693 12.6905 5.64693 12.552 5.52501L6.49672 0.195547C6.3403 0.0675017 6.14029 0.00518178 5.93882 0.0217209C5.73735 0.0382601 5.55018 0.132366 5.41674 0.284207C5.2833 0.436048 5.21402 0.633763 5.2235 0.835683C5.23298 1.0376 5.32047 1.22796 5.46755 1.36663L10.1459 5.4833C10.1664 5.5015 10.181 5.52551 10.1875 5.55214C10.1941 5.57876 10.1924 5.60676 10.1827 5.63242C10.1731 5.65808 10.1558 5.6802 10.1333 5.69584C10.1107 5.71148 10.084 5.7199 10.0566 5.72001H0.78647C0.579601 5.72001 0.381205 5.80218 0.234926 5.94846C0.0886481 6.09474 0.00646973 6.29314 0.00646973 6.50001C0.00646973 6.70687 0.0886481 6.90527 0.234926 7.05155C0.381205 7.19783 0.579601 7.28001 0.78647 7.28001H10.0549C10.0823 7.28027 10.109 7.28882 10.1315 7.30453C10.154 7.32023 10.1712 7.34237 10.1809 7.36803C10.1905 7.39369 10.1922 7.42167 10.1857 7.4483C10.1792 7.47493 10.1647 7.49897 10.1443 7.51726L5.46593 11.6339C5.38411 11.7 5.3165 11.782 5.26717 11.8748C5.21783 11.9677 5.1878 12.0696 5.17886 12.1744C5.16992 12.2792 5.18227 12.3847 5.21516 12.4846C5.24805 12.5845 5.30081 12.6768 5.37025 12.7557C5.4397 12.8347 5.52441 12.8989 5.61927 12.9443C5.71414 12.9897 5.81721 13.0154 5.92229 13.02C6.02736 13.0245 6.13227 13.0078 6.23071 12.9707C6.32915 12.9337 6.41908 12.8772 6.49509 12.8045L12.5515 7.47501C12.69 7.35313 12.8011 7.20315 12.8772 7.03504C12.9533 6.86693 12.9928 6.68454 12.9929 6.50001Z"
            fill="white" />
    </g>
    <defs>
        <clipPath id="clip0_128_21">
            <rect width="13" height="13" fill="white" />
        </clipPath>
    </defs>
</svg>